<svg width="18" height="21" viewBox="0 0 18 21" fill="none" xmlns="http://www.w3.org/2000/svg">
<path fill-rule="evenodd" clip-rule="evenodd" d="M9.27394 0.748047C11.5413 0.759425 13.7117 1.66962 15.3089 3.27902C16.9061 4.88842 17.7998 7.06561 17.7939 9.33304C17.7939 15.154 11.1269 20.887 9.27394 20.887C7.42094 20.887 0.753935 15.154 0.753935 9.33304C0.748081 7.06561 1.64177 4.88842 3.23899 3.27902C4.8362 1.66962 7.00653 0.759425 9.27394 0.748047ZM9.27394 2.29803C7.41736 2.30888 5.64087 3.05559 4.33406 4.37439C3.02725 5.69319 2.29681 7.47644 2.30293 9.33304C2.30293 14.269 8.11094 19.078 9.27394 19.333C10.4369 19.076 16.2449 14.267 16.2449 9.33304C16.2511 7.47644 15.5206 5.69319 14.2138 4.37439C12.907 3.05559 11.1305 2.30888 9.27394 2.29803ZM9.27394 5.91302C9.93789 5.91283 10.587 6.10953 11.1392 6.47824C11.6913 6.84695 12.1218 7.3711 12.376 7.98444C12.6303 8.59777 12.697 9.27275 12.5676 9.92398C12.4383 10.5752 12.1187 11.1735 11.6494 11.6431C11.1801 12.1127 10.582 12.4326 9.93083 12.5623C9.27968 12.6921 8.60468 12.6258 7.99119 12.3719C7.3777 12.118 6.85328 11.6879 6.48425 11.1359C6.11521 10.584 5.91813 9.93498 5.91794 9.27103C5.91847 8.38059 6.27242 7.52679 6.90206 6.89716C7.53169 6.26752 8.3855 5.91355 9.27593 5.91302H9.27394ZM9.27394 7.46103C8.91663 7.46103 8.56734 7.56697 8.27023 7.76544C7.97311 7.96391 7.7415 8.24601 7.60468 8.57608C7.46785 8.90615 7.43195 9.26937 7.50151 9.61984C7.57107 9.97031 7.74297 10.2923 7.99549 10.5451C8.248 10.7979 8.56979 10.9701 8.92018 11.0401C9.27057 11.11 9.63384 11.0745 9.96406 10.938C10.2943 10.8016 10.5766 10.5703 10.7754 10.2734C10.9742 9.97651 11.0805 9.62736 11.0809 9.27005C11.0799 8.79166 10.8894 8.33315 10.5511 7.99487C10.2128 7.6566 9.75432 7.46608 9.27593 7.46503L9.27394 7.46103Z" fill="#143A3A"/>
</svg>
