<svg width="16" height="12" viewBox="0 0 16 12" fill="none" xmlns="http://www.w3.org/2000/svg">
<path d="M15.6909 0.74292C15.5799 0.632269 15.4297 0.570068 15.2729 0.570068C15.1162 0.570068 14.9659 0.632269 14.8549 0.74292L5.27594 10.3101L1.50794 6.54688C1.39734 6.43601 1.24723 6.37372 1.09064 6.37354C0.934045 6.37335 0.783773 6.4353 0.672913 6.5459C0.562053 6.65649 0.4997 6.80654 0.499512 6.96313C0.499325 7.11973 0.561341 7.27 0.671936 7.38086L4.85791 11.562C4.96888 11.6727 5.11923 11.7346 5.27594 11.7346C5.43265 11.7346 5.58294 11.6727 5.69391 11.562L15.6939 1.5769C15.7486 1.52199 15.7919 1.45692 15.8213 1.38525C15.8507 1.31359 15.8658 1.23689 15.8655 1.15942C15.8652 1.08195 15.8497 1.00529 15.8197 0.933838C15.7898 0.862389 15.746 0.797435 15.6909 0.74292Z" fill="#143A3A"/>
</svg>
