<svg width="13" height="12" viewBox="0 0 13 12" fill="none" xmlns="http://www.w3.org/2000/svg">
<path d="M4.17178 6.519H2.90478C2.85678 6.519 2.81074 6.49993 2.77679 6.46599C2.74285 6.43204 2.72378 6.386 2.72378 6.338V5.975C2.72378 5.927 2.74285 5.88096 2.77679 5.84701C2.81074 5.81307 2.85678 5.794 2.90478 5.794H4.17178V4.346H2.90478C2.85678 4.346 2.81074 4.32693 2.77679 4.29299C2.74285 4.25904 2.72378 4.213 2.72378 4.165V3.8C2.72378 3.752 2.74285 3.70596 2.77679 3.67201C2.81074 3.63807 2.85678 3.619 2.90478 3.619H4.17178V2.173H2.90478C2.85678 2.173 2.81074 2.15393 2.77679 2.11999C2.74285 2.08604 2.72378 2.04 2.72378 1.992V1.63C2.72378 1.582 2.74285 1.53596 2.77679 1.50201C2.81074 1.46807 2.85678 1.449 2.90478 1.449H4.17178V0.724C4.17178 0.532502 4.09592 0.348803 3.96079 0.213112C3.82566 0.077422 3.64228 0.0007935 3.45078 0L1.27478 0C1.08276 0 0.898612 0.0762783 0.762836 0.212055C0.62706 0.347831 0.550781 0.531983 0.550781 0.724L0.550781 10.864C0.555087 10.9243 0.567188 10.9838 0.586781 11.041L4.17178 7.455V6.519ZM11.4148 7.968H10.6908V9.235C10.6908 9.283 10.6717 9.32904 10.6378 9.36299C10.6038 9.39693 10.5578 9.416 10.5098 9.416H10.1508C10.1028 9.416 10.0567 9.39693 10.0228 9.36299C9.98885 9.32904 9.96978 9.283 9.96978 9.235V7.967H8.51778V9.235C8.51778 9.283 8.49871 9.32904 8.46477 9.36299C8.43082 9.39693 8.38479 9.416 8.33678 9.416H7.97478C7.92678 9.416 7.88074 9.39693 7.8468 9.36299C7.81285 9.32904 7.79378 9.283 7.79378 9.235V7.967H6.34478V9.235C6.34478 9.283 6.32571 9.32904 6.29177 9.36299C6.25782 9.39693 6.21179 9.416 6.16378 9.416H5.80178C5.75378 9.416 5.70774 9.39693 5.67379 9.36299C5.63985 9.32904 5.62078 9.283 5.62078 9.235V7.967H4.68478L1.09878 11.553C1.15598 11.5726 1.21547 11.5847 1.27578 11.589H11.4158C11.6078 11.589 11.792 11.5127 11.9277 11.3769C12.0635 11.2412 12.1398 11.057 12.1398 10.865V8.691C12.1398 8.59584 12.121 8.50161 12.0846 8.41371C12.0481 8.3258 11.9947 8.24594 11.9274 8.1787C11.86 8.11146 11.7801 8.05815 11.6922 8.02182C11.6042 7.9855 11.5099 7.96787 11.4148 7.968Z" fill="#143A3A"/>
</svg>
