<?xml version="1.0" encoding="utf-8"?>
<!-- Generator: Adobe Illustrator 27.8.1, SVG Export Plug-In . SVG Version: 6.00 Build 0)  -->
<svg version="1.1" id="Layer_1" xmlns="http://www.w3.org/2000/svg" xmlns:xlink="http://www.w3.org/1999/xlink" x="0px" y="0px"
	 viewBox="0 0 24 24" style="enable-background:new 0 0 24 24;" xml:space="preserve">
<style type="text/css">
	.st0{fill:#143A3A;}
</style>
<g id="a">
</g>
<g id="b">
</g>
<g id="c">
</g>
<g id="d">
</g>
<g id="e">
</g>
<g id="f">
</g>
<g id="g">
</g>
<g id="h">
</g>
<g id="i">
</g>
<g id="j">
</g>
<g id="k">
</g>
<g id="l">
</g>
<g id="m">
</g>
<g id="n">
</g>
<g id="o">
</g>
<g id="p">
</g>
<g id="q">
</g>
<g id="r">
</g>
<g id="s">
</g>
<g id="t">
</g>
<g id="u">
	<path class="st0" d="M19.8,12.4V8c0-1.5-1.2-2.8-2.8-2.8H7C5.5,5.2,4.2,6.5,4.2,8v4.4c-1.2,0.3-2,1.4-2,2.6v2c0,1,0.8,1.8,1.8,1.8
		h0.2V20c0,0.4,0.3,0.8,0.8,0.8s0.8-0.3,0.8-0.8v-1.2h12.5V20c0,0.4,0.3,0.8,0.8,0.8s0.8-0.3,0.8-0.8v-1.2H20c1,0,1.8-0.8,1.8-1.8
		v-2C21.8,13.8,20.9,12.7,19.8,12.4z M5.8,8c0-0.7,0.6-1.2,1.2-1.2h10c0.7,0,1.2,0.6,1.2,1.2v4.2h-0.5V12c0-1.5-1.2-2.8-2.8-2.8h-1
		c-0.8,0-1.5,0.3-2,0.9c-0.5-0.5-1.2-0.9-2-0.9H9c-1.5,0-2.8,1.2-2.8,2.8v0.2H5.8V8z M7.8,12.2V12c0-0.7,0.6-1.2,1.2-1.2h1
		c0.7,0,1.2,0.6,1.2,1.2v0.2H7.8z M12.8,12c0-0.7,0.6-1.2,1.2-1.2h1c0.7,0,1.2,0.6,1.2,1.2v0.2h-3.5V12z M20.2,17
		c0,0.1-0.1,0.2-0.2,0.2H4c-0.1,0-0.2-0.1-0.2-0.2v-2c0-0.7,0.6-1.2,1.2-1.2h14c0.7,0,1.2,0.6,1.2,1.2V17z"/>
</g>
</svg>
