<?xml version="1.0" encoding="utf-8"?>
<!-- Generator: Adobe Illustrator 27.8.1, SVG Export Plug-In . SVG Version: 6.00 Build 0)  -->
<svg version="1.1" id="Layer_1" xmlns="http://www.w3.org/2000/svg" xmlns:xlink="http://www.w3.org/1999/xlink" x="0px" y="0px"
	 viewBox="0 0 24 24" style="enable-background:new 0 0 24 24;" xml:space="preserve">
<style type="text/css">
	.st0{fill:#143A3A;}
</style>
<g id="a">
</g>
<g id="b">
</g>
<g id="c">
</g>
<g id="d">
	<g>
		<path class="st0" d="M21,11.1c-0.4-0.2-0.8-0.4-1.2-0.3V5c0-1.5-1.2-2.8-2.8-2.8h-1c-1.5,0-2.8,1.2-2.8,2.8c0,0.4,0.3,0.8,0.8,0.8
			s0.8-0.3,0.8-0.8c0-0.7,0.6-1.2,1.2-1.2h1c0.7,0,1.2,0.6,1.2,1.2v5.2l-0.7-0.7c-0.3-0.3-0.8-0.3-1.1,0s-0.3,0.8,0,1.1l1,1
			c-4.2,1.1-8.7,0.9-12.8-0.6c-0.5-0.2-1.2-0.1-1.6,0.2s-0.8,0.9-0.8,1.4V15c0,2.2,1.5,4.1,3.6,4.6l-0.5,1.1c-0.2,0.4,0,0.8,0.3,1
			c0.1,0,0.2,0.1,0.3,0.1c0.3,0,0.5-0.1,0.7-0.4l0.8-1.6h9.1l0.8,1.6c0.1,0.3,0.4,0.4,0.7,0.4c0.1,0,0.2,0,0.3-0.1
			c0.4-0.2,0.5-0.6,0.3-1l-0.5-1.1c2.1-0.5,3.6-2.4,3.6-4.6v-2.5C21.7,11.9,21.5,11.4,21,11.1L21,11.1z M20.2,15
			c0,1.8-1.5,3.2-3.2,3.2H7c-1.8,0-3.2-1.5-3.2-3.2v-2.5c0-0.1,0.1-0.2,0.1-0.2c0,0,0.1,0,0.1,0c0,0,0.1,0,0.1,0
			c5.1,1.9,10.8,1.9,15.8,0c0.1-0.1,0.2,0,0.2,0c0,0,0.1,0.1,0.1,0.2L20.2,15L20.2,15z"/>
		<path class="st0" d="M14,10.8c0.4,0,0.8-0.3,0.8-0.8S14.4,9.2,14,9.2l0,0c-0.4,0-0.8,0.3-0.8,0.8S13.6,10.8,14,10.8z"/>
		<path class="st0" d="M14,8.8c0.4,0,0.8-0.3,0.8-0.8S14.4,7.2,14,7.2l0,0c-0.4,0-0.8,0.3-0.8,0.8S13.6,8.8,14,8.8z"/>
	</g>
</g>
<g id="e">
</g>
<g id="f">
</g>
<g id="g">
</g>
<g id="h">
</g>
<g id="i">
</g>
<g id="j">
</g>
<g id="k">
</g>
<g id="l">
</g>
<g id="m">
</g>
<g id="n">
</g>
<g id="o">
</g>
<g id="p">
</g>
<g id="q">
</g>
<g id="r">
</g>
<g id="s">
</g>
<g id="t">
</g>
<g id="u">
</g>
</svg>
