<svg xmlns="http://www.w3.org/2000/svg" width="14.373" height="19.741" viewBox="0 0 14.373 19.741">
  <path id="Vector" d="M7.917-.117A1.587,1.587,0,0,1,5.847-1l-.63-1.54a1.6,1.6,0,0,1,.88-2.08l2.29-.93A24.03,24.03,0,0,0,7.2-9.507a25.047,25.047,0,0,0-2.08-4.1l-2.29.93a1.6,1.6,0,0,1-2.08-.88L.117-15.1A1.6,1.6,0,0,1,1-17.177l2.07-.84.04-.02a4.763,4.763,0,0,1,5.96,2.07,42.491,42.491,0,0,1,2.26,4.76,40.437,40.437,0,0,1,1.52,4.55,4.785,4.785,0,0,1-2.82,5.67l-.04.03Z" transform="translate(13.698 0.607) rotate(180)" fill="#5fafec00" stroke="#fff" stroke-linecap="round" stroke-linejoin="round" stroke-miterlimit="10" stroke-width="1.2" stroke-dasharray="0 0"/>
</svg>
