<svg width="33" height="26" viewBox="0 0 33 26" fill="none" xmlns="http://www.w3.org/2000/svg">
<path d="M30.8317 9.63794H30.8037C30.3974 9.63873 30.0079 9.8005 29.7206 10.0878C29.4333 10.3751 29.2715 10.7646 29.2707 11.1709C29.2705 11.212 29.2541 11.2512 29.2251 11.2803C29.196 11.3093 29.1568 11.3257 29.1157 11.3259H4.11475C4.07372 11.3257 4.03445 11.3093 4.00543 11.2803C3.97642 11.2512 3.96001 11.212 3.95975 11.1709C3.95895 10.7646 3.79719 10.3751 3.50986 10.0878C3.22254 9.8005 2.83308 9.63873 2.42675 9.63794H2.39775C1.99141 9.63873 1.60195 9.8005 1.31463 10.0878C1.02731 10.3751 0.865539 10.7646 0.864746 11.1709V23.8549C0.865539 24.2613 1.02731 24.6507 1.31463 24.9381C1.60195 25.2254 1.99141 25.3871 2.39775 25.3879H2.42575C2.83208 25.3871 3.22154 25.2254 3.50886 24.9381C3.79619 24.6507 3.95795 24.2613 3.95875 23.8549V23.4189C3.95901 23.3445 3.9887 23.2732 4.04134 23.2205C4.09398 23.1679 4.1653 23.1382 4.23975 23.1379H28.9897C29.0642 23.1382 29.1355 23.1679 29.1882 23.2205C29.2408 23.2732 29.2705 23.3445 29.2707 23.4189V23.8549C29.2715 24.2613 29.4333 24.6507 29.7206 24.9381C30.0079 25.2254 30.3974 25.3871 30.8037 25.3879H30.8317C31.2381 25.3871 31.6275 25.2254 31.9149 24.9381C32.2022 24.6507 32.364 24.2613 32.3647 23.8549V11.1709C32.364 10.7646 32.2022 10.3751 31.9149 10.0878C31.6275 9.8005 31.2381 9.63873 30.8317 9.63794Z" fill="#143A3A"/>
<path d="M4.52098 10.0599H6.10298C6.17743 10.0597 6.24875 10.03 6.30139 9.97735C6.35403 9.9247 6.38372 9.85338 6.38398 9.77894V8.86494C6.38478 8.56681 6.50356 8.28113 6.71436 8.07032C6.92517 7.85951 7.21086 7.74073 7.50898 7.73994H14.365C14.6631 7.74073 14.9488 7.85951 15.1596 8.07032C15.3704 8.28113 15.4892 8.56681 15.49 8.86494V9.77894C15.4902 9.85338 15.5199 9.9247 15.5726 9.97735C15.6252 10.03 15.6965 10.0597 15.771 10.0599H17.459C17.5334 10.0597 17.6047 10.03 17.6574 9.97735C17.71 9.9247 17.7397 9.85338 17.74 9.77894V8.86494C17.7408 8.56681 17.8596 8.28113 18.0704 8.07032C18.2812 7.85951 18.5669 7.74073 18.865 7.73994H25.72C26.0181 7.74073 26.3038 7.85951 26.5146 8.07032C26.7254 8.28113 26.8442 8.56681 26.845 8.86494V9.77894C26.8452 9.85338 26.8749 9.9247 26.9276 9.97735C26.9802 10.03 27.0515 10.0597 27.126 10.0599H28.708C28.857 10.0597 28.9999 10.0004 29.1054 9.8951C29.2109 9.78979 29.2705 9.647 29.271 9.49794V2.88794C29.2691 2.29177 29.0315 1.72055 28.6099 1.29899C28.1884 0.877432 27.6172 0.639786 27.021 0.637939H6.20898C5.61282 0.639786 5.04159 0.877432 4.62003 1.29899C4.19848 1.72055 3.96083 2.29177 3.95898 2.88794V9.49694C3.95925 9.646 4.01851 9.7889 4.12382 9.8944C4.22913 9.99989 4.37192 10.0594 4.52098 10.0599Z" fill="#143A3A"/>
</svg>
