<svg width="32" height="32" viewBox="0 0 32 32" fill="none" xmlns="http://www.w3.org/2000/svg">
<path d="M26.782 4.82698C24.1038 2.15113 20.5445 0.539511 16.7667 0.292071C12.9888 0.0446305 9.24979 1.17822 6.24539 3.48188C3.241 5.78553 1.17592 9.10231 0.434509 12.8149C-0.306905 16.5275 0.325846 20.3831 2.215 23.664L0 31.75L8.276 29.577C10.5643 30.8251 13.1295 31.4784 15.736 31.477H15.743C19.8966 31.4764 23.882 29.8361 26.8327 26.9127C29.7834 23.9894 31.4607 20.0194 31.5 15.866C31.4777 13.8062 31.0495 11.771 30.24 9.87679C29.4304 7.98261 28.2554 6.26662 26.782 4.82698ZM15.743 28.846C13.4177 28.8479 11.1348 28.2237 9.134 27.039L8.663 26.758L3.755 28.045L5.063 23.257L4.754 22.765C3.71576 21.0557 3.08588 19.13 2.91334 17.1375C2.74081 15.1451 3.03029 13.1398 3.75926 11.2775C4.48822 9.41517 5.63702 7.74618 7.11627 6.40032C8.59552 5.05446 10.3653 4.06803 12.288 3.51778C14.2107 2.96753 16.2344 2.86829 18.2017 3.22779C20.169 3.58728 22.0269 4.39582 23.6307 5.59049C25.2345 6.78516 26.5411 8.33375 27.4488 10.1158C28.3565 11.8978 28.8408 13.8652 28.864 15.865C28.8274 19.3204 27.4289 22.6218 24.9724 25.0521C22.5158 27.4825 19.1996 28.8454 15.744 28.845L15.743 28.846ZM22.859 19.129C22.472 18.929 20.553 17.99 20.194 17.863C19.835 17.736 19.575 17.663 19.315 18.063C19.055 18.463 18.31 19.329 18.078 19.596C17.846 19.863 17.621 19.896 17.234 19.696C14.9873 18.799 13.1142 17.1617 11.925 15.055C11.525 14.366 12.325 14.415 13.071 12.925C13.1218 12.8172 13.1452 12.6986 13.1391 12.5796C13.133 12.4606 13.0976 12.345 13.036 12.243C12.936 12.043 12.157 10.127 11.836 9.34298C11.52 8.58398 11.196 8.68898 10.957 8.67498C10.718 8.66098 10.472 8.66098 10.212 8.66098C10.0145 8.66638 9.8203 8.7122 9.64125 8.79562C9.4622 8.87904 9.30215 8.99828 9.171 9.14598C8.72932 9.56365 8.37934 10.0686 8.14332 10.6288C7.90729 11.189 7.79038 11.7922 7.8 12.4C7.92868 13.8706 8.48059 15.2724 9.389 16.436C9.589 16.696 12.138 20.636 16.055 22.328C18.53 23.397 19.5 23.488 20.738 23.305C21.281 23.1947 21.7952 22.9727 22.2479 22.6532C22.7007 22.3337 23.0821 21.9236 23.368 21.449C23.6225 20.8655 23.7007 20.2204 23.593 19.593C23.505 19.417 23.245 19.319 22.859 19.129Z" fill="#F0FFDB"/>
</svg>
