<svg width="20" height="35" viewBox="0 0 20 35" fill="none" xmlns="http://www.w3.org/2000/svg">
<path d="M18.8085 0.645336C19.1964 1.11287 19.4208 1.69442 19.4475 2.30134C19.4613 2.59522 19.4114 2.88859 19.3011 3.16133C19.1908 3.43407 19.0228 3.67967 18.8085 3.8813L5.56752 17.1213L18.8835 30.4373C19.0875 30.6512 19.2433 30.9062 19.3406 31.1853C19.4379 31.4643 19.4743 31.7609 19.4475 32.0552C19.4528 32.6571 19.2237 33.2375 18.8085 33.6733C18.6057 33.9013 18.3563 34.0831 18.0772 34.2062C17.798 34.3294 17.4956 34.3912 17.1905 34.3873C16.6036 34.3573 16.0511 34.1014 15.6485 33.6733L0.677515 18.7012C0.452877 18.4887 0.273598 18.233 0.150507 17.9493C-0.0503364 17.4156 -0.0503364 16.827 0.150507 16.2933C0.273623 16.0096 0.452898 15.7539 0.677515 15.5413L15.5775 0.641308C15.7791 0.426959 16.0247 0.258823 16.2974 0.14851C16.5702 0.0381974 16.8636 -0.011708 17.1575 0.00226974C17.7632 0.0309446 18.343 0.2568 18.8085 0.645336Z" fill="#143A3A"/>
</svg>
