<svg width="20" height="35" viewBox="0 0 20 35" fill="none" xmlns="http://www.w3.org/2000/svg">
<path d="M0.647542 33.7421C0.259628 33.2746 0.0352332 32.693 0.00854996 32.0861C-0.00529386 31.7922 0.0446536 31.4989 0.154958 31.2261C0.265262 30.9534 0.433301 30.7078 0.647542 30.5062L13.8885 17.2662L0.572545 3.95012C0.368583 3.73625 0.21273 3.48127 0.115453 3.2022C0.0181761 2.92313 -0.0182685 2.62652 0.00854996 2.3322C0.00320816 1.73033 0.232385 1.14997 0.647542 0.714162C0.850318 0.486154 1.09974 0.304392 1.3789 0.181203C1.65806 0.0580138 1.96043 -0.00371386 2.26554 0.000172776C2.85244 0.0301733 3.405 0.286013 3.80755 0.714162L18.7785 15.6862C19.0032 15.8987 19.1825 16.1545 19.3055 16.4382C19.5064 16.9719 19.5064 17.5604 19.3055 18.0942C19.1824 18.3778 19.0032 18.6336 18.7785 18.8461L3.87855 33.7461C3.677 33.9605 3.43138 34.1286 3.15862 34.2389C2.88586 34.3493 2.59243 34.3992 2.29854 34.3852C1.69284 34.3565 1.11309 34.1307 0.647542 33.7421Z" fill="#143A3A"/>
</svg>
