<svg width="12" height="12" viewBox="0 0 12 12" fill="none" xmlns="http://www.w3.org/2000/svg">
<path d="M9.69012 10.14H2.44712V8.69102L4.62012 5.07202L7.60012 8.69102L9.69012 7.24302V10.14ZM9.69012 5.43202C9.69011 5.64664 9.62652 5.85645 9.50737 6.03496C9.38821 6.21346 9.21884 6.35265 9.02063 6.43497C8.82242 6.51728 8.60427 6.53902 8.39372 6.49744C8.18316 6.45586 7.98965 6.35282 7.83761 6.20134C7.68557 6.04986 7.58183 5.85673 7.53947 5.64633C7.49712 5.43593 7.51806 5.2177 7.59964 5.01919C7.68122 4.82068 7.8198 4.6508 7.99786 4.53099C8.17593 4.41118 8.3855 4.34681 8.60012 4.34602C8.74307 4.3455 8.88472 4.3732 9.01694 4.42754C9.14916 4.48188 9.26935 4.56179 9.37062 4.66269C9.47189 4.76358 9.55224 4.88348 9.60707 5.0155C9.6619 5.14752 9.69012 5.28907 9.69012 5.43202ZM10.6611 2.59202C10.3601 2.19247 10.0302 1.81546 9.67412 1.46402C9.32267 1.10797 8.94567 0.778093 8.54612 0.477023C8.26341 0.211227 7.90258 0.0436093 7.51712 -0.000976562H1.90012C1.66018 -0.000711874 1.43014 0.0947209 1.26048 0.264384C1.09081 0.434047 0.995382 0.664084 0.995117 0.904023V10.682C0.995382 10.922 1.09081 11.152 1.26048 11.3217C1.43014 11.4913 1.66018 11.5868 1.90012 11.587H10.2291C10.4691 11.5868 10.6991 11.4913 10.8688 11.3217C11.0384 11.152 11.1339 10.922 11.1341 10.682V3.62102C11.0899 3.23546 10.9222 2.87452 10.6561 2.59202H10.6611ZM9.16112 1.97602C9.45371 2.26562 9.72791 2.57322 9.98212 2.89702H8.24212V1.15502C8.56594 1.40921 8.87354 1.68341 9.16312 1.97602H9.16112ZM10.4131 10.683C10.4123 10.7308 10.393 10.7764 10.3592 10.8102C10.3255 10.8439 10.2799 10.8633 10.2321 10.864H1.90012C1.85235 10.8633 1.80676 10.8439 1.77299 10.8102C1.73921 10.7764 1.71989 10.7308 1.71912 10.683V0.905023C1.71989 0.85726 1.73921 0.81167 1.77299 0.777892C1.80676 0.744114 1.85235 0.724796 1.90012 0.724023H7.51312V3.25902C7.51312 3.35503 7.55126 3.44711 7.61914 3.515C7.68703 3.58288 7.77911 3.62102 7.87512 3.62102H10.4101L10.4131 10.683Z" fill="#143A3A"/>
</svg>
