<svg xmlns="http://www.w3.org/2000/svg" width="8.618" height="15.235" viewBox="0 0 8.618 15.235">
  <g id="chevron_right_FILL0_wght400_GRAD0_opsz48_1_1" data-name="chevron_right_FILL0_wght400_GRAD0_opsz48 (1) 1" transform="translate(-228.516 -1079.816)">
    <path id="Vector" d="M228.8,1094.766a1.234,1.234,0,0,1-.283-.734.9.9,0,0,1,.283-.7l5.867-5.867-5.9-5.9a.918.918,0,0,1-.25-.717,1.026,1.026,0,0,1,.283-.717.943.943,0,0,1,.717-.317,1.008,1.008,0,0,1,.683.317l6.633,6.634a1.014,1.014,0,0,1,.233.333,1.042,1.042,0,0,1,0,.734,1.015,1.015,0,0,1-.233.333l-6.6,6.6a.9.9,0,0,1-.7.283A1.233,1.233,0,0,1,228.8,1094.766Z" fill="#97d2ff"/>
  </g>
</svg>
