<svg xmlns="http://www.w3.org/2000/svg" xmlns:xlink="http://www.w3.org/1999/xlink" width="193.435" height="43.857" viewBox="0 0 193.435 43.857">
  <defs>
    <clipPath id="clip-path">
      <rect id="Rectangle_78" data-name="Rectangle 78" width="193.435" height="43.857" fill="none"/>
    </clipPath>
  </defs>
  <g id="Group_140" data-name="Group 140" transform="translate(0 0)">
    <path id="Path_157" data-name="Path 157" d="M58.3,19.561,58.278,9.116l-5.123,8.6H51.339l-5.1-8.381V19.561h-3.78V2.152h3.333L52.309,12.97,58.726,2.152h3.308l.05,17.409Z" transform="translate(-21.858 -1.108)" fill="#fff"/>
    <g id="Group_139" data-name="Group 139" transform="translate(0 0)">
      <g id="Group_138" data-name="Group 138" clip-path="url(#clip-path)">
        <path id="Path_158" data-name="Path 158" d="M101.763,15.989v7.635H98.132V21.957c-.722,1.219-2.114,1.866-4.079,1.866-3.134,0-5-1.741-5-4.054,0-2.363,1.666-4,5.745-4h3.084c0-1.666-1-2.637-3.084-2.637a6.438,6.438,0,0,0-3.856,1.244l-1.393-2.71a10.286,10.286,0,0,1,5.77-1.617c4.078,0,6.441,1.89,6.441,5.944M97.884,19.4V18.028H95.223c-1.816,0-2.388.671-2.388,1.566,0,.97.82,1.617,2.188,1.617a2.859,2.859,0,0,0,2.86-1.816" transform="translate(-45.843 -5.171)" fill="#fff"/>
        <rect id="Rectangle_76" data-name="Rectangle 76" width="3.879" height="18.453" transform="translate(59.427)" fill="#fff"/>
        <path id="Path_159" data-name="Path 159" d="M146.841,20.049a5.541,5.541,0,0,1-3.159.846c-3.158,0-5-1.616-5-4.8V10.6H136.62V7.614h2.064V4.356h3.88V7.614H145.9V10.6h-3.333v5.447a1.561,1.561,0,0,0,1.666,1.766,2.614,2.614,0,0,0,1.567-.5Z" transform="translate(-70.328 -2.242)" fill="#fff"/>
        <path id="Path_160" data-name="Path 160" d="M173.112,15.989v7.635h-3.631V21.957c-.721,1.219-2.114,1.866-4.079,1.866-3.134,0-5-1.741-5-4.054,0-2.363,1.666-4,5.745-4h3.084c0-1.666-1-2.637-3.084-2.637a6.438,6.438,0,0,0-3.856,1.244l-1.393-2.71a10.286,10.286,0,0,1,5.77-1.617c4.078,0,6.441,1.89,6.441,5.944M169.233,19.4V18.028h-2.661c-1.816,0-2.388.671-2.388,1.566,0,.97.821,1.617,2.188,1.617a2.859,2.859,0,0,0,2.86-1.816" transform="translate(-82.572 -5.171)" fill="#fff"/>
        <path id="Path_161" data-name="Path 161" d="M192.542,17.289l.721-1.418a8.548,8.548,0,0,0,5.745,2.115c3.258,0,4.676-1.368,4.676-3.084,0-4.776-10.719-1.84-10.719-8.282,0-2.562,1.99-4.775,6.417-4.775a9.826,9.826,0,0,1,5.4,1.542l-.622,1.467a8.965,8.965,0,0,0-4.775-1.443c-3.184,0-4.6,1.417-4.6,3.158,0,4.775,10.719,1.89,10.719,8.232,0,2.562-2.039,4.75-6.491,4.75a9.438,9.438,0,0,1-6.466-2.263" transform="translate(-99.116 -0.95)" fill="#fff"/>
        <path id="Path_162" data-name="Path 162" d="M235.442,15.94v8.108h-1.691V22.008a4.911,4.911,0,0,1-4.5,2.164c-2.96,0-4.776-1.542-4.776-3.8,0-2.015,1.294-3.706,5.049-3.706h4.154v-.8c0-2.238-1.268-3.457-3.706-3.457a6.665,6.665,0,0,0-4.352,1.542l-.8-1.318a8.309,8.309,0,0,1,5.322-1.765c3.382,0,5.3,1.691,5.3,5.074m-1.766,4.178V17.979h-4.1c-2.537,0-3.358.995-3.358,2.337,0,1.517,1.219,2.462,3.308,2.462a4.185,4.185,0,0,0,4.154-2.661" transform="translate(-115.553 -5.593)" fill="#fff"/>
        <rect id="Rectangle_77" data-name="Rectangle 77" width="1.766" height="18.453" transform="translate(124.689)" fill="#fff"/>
        <path id="Path_163" data-name="Path 163" d="M280.753,18.053H269.81a4.842,4.842,0,0,0,5.148,4.551,5.157,5.157,0,0,0,4-1.716l1,1.144a6.916,6.916,0,0,1-11.913-4.526,6.3,6.3,0,0,1,6.391-6.641c3.681,0,6.342,2.711,6.342,6.641,0,.148-.025.348-.025.547M269.81,16.734h9.276a4.647,4.647,0,0,0-9.276,0" transform="translate(-137.982 -5.593)" fill="#fff"/>
        <path id="Path_164" data-name="Path 164" d="M57.557,50.469c0,3.879-2.909,6.292-7.56,6.292H46.49v4.8H42.461V44.152H50c4.651,0,7.56,2.413,7.56,6.317m-4.078,0c0-1.915-1.244-3.034-3.706-3.034H46.49v6.043h3.283c2.462,0,3.706-1.119,3.706-3.009" transform="translate(-21.858 -22.728)" fill="#fff"/>
        <path id="Path_165" data-name="Path 165" d="M87.212,52.045v3.581c-.323-.025-.572-.049-.87-.049-2.139,0-3.556,1.169-3.556,3.73v6.317h-3.88V52.244h3.706V54.01a5.4,5.4,0,0,1,4.6-1.965" transform="translate(-40.618 -26.791)" fill="#fff"/>
        <path id="Path_166" data-name="Path 166" d="M98.486,58.934c0-4.029,3.109-6.889,7.362-6.889s7.337,2.86,7.337,6.889-3.085,6.889-7.337,6.889-7.362-2.86-7.362-6.889m10.769,0a3.431,3.431,0,1,0-6.839,0,3.431,3.431,0,1,0,6.839,0" transform="translate(-50.698 -26.791)" fill="#fff"/>
        <path id="Path_167" data-name="Path 167" d="M148.684,58.934a6.5,6.5,0,0,1-6.665,6.889,5.2,5.2,0,0,1-4.029-1.616v6.242h-3.88v-18.2h3.706v1.542a5.2,5.2,0,0,1,4.2-1.741,6.5,6.5,0,0,1,6.665,6.889m-3.929,0a3.419,3.419,0,1,0-6.815,0,3.42,3.42,0,1,0,6.815,0" transform="translate(-69.036 -26.791)" fill="#fff"/>
        <path id="Path_168" data-name="Path 168" d="M181.455,60.028H171.333c.373,1.666,1.791,2.686,3.83,2.686a4.534,4.534,0,0,0,3.357-1.293l2.064,2.238a7.007,7.007,0,0,1-5.521,2.164c-4.626,0-7.635-2.91-7.635-6.889a6.812,6.812,0,0,1,7.138-6.889,6.624,6.624,0,0,1,6.963,6.939c0,.3-.049.721-.074,1.044m-10.172-2.263h6.59a3.342,3.342,0,0,0-6.59,0" transform="translate(-86.188 -26.791)" fill="#fff"/>
        <path id="Path_169" data-name="Path 169" d="M210.129,52.045v3.581c-.323-.025-.573-.049-.871-.049-2.138,0-3.556,1.169-3.556,3.73v6.317h-3.88V52.244h3.706V54.01a5.4,5.4,0,0,1,4.6-1.965" transform="translate(-103.893 -26.791)" fill="#fff"/>
        <path id="Path_170" data-name="Path 170" d="M231.624,62.049a5.541,5.541,0,0,1-3.159.846c-3.158,0-5-1.616-5-4.8V52.6H221.4V49.614h2.064V46.356h3.88v3.258h3.333V52.6h-3.333v5.447a1.561,1.561,0,0,0,1.666,1.766,2.614,2.614,0,0,0,1.567-.5Z" transform="translate(-113.973 -23.863)" fill="#fff"/>
        <path id="Path_171" data-name="Path 171" d="M257.586,52.455l-6.044,14.2c-1.293,3.233-3.133,4.2-5.546,4.2a5.94,5.94,0,0,1-3.73-1.219l1.418-2.76a3.437,3.437,0,0,0,2.188.845c1.069,0,1.666-.473,2.188-1.666l.05-.125-5.8-13.48h4l3.756,9.078,3.781-9.078Z" transform="translate(-124.712 -27.002)" fill="#fff"/>
        <path id="Path_172" data-name="Path 172" d="M273.532,72.885a2.412,2.412,0,0,1,4.825,0,2.412,2.412,0,1,1-4.825,0" transform="translate(-140.807 -36.29)" fill="#fff"/>
        <path id="Path_173" data-name="Path 173" d="M286.5,58.934c0-4.029,3.109-6.889,7.461-6.889,2.81,0,5.023,1.218,5.993,3.407l-3.009,1.616a3.337,3.337,0,0,0-3.009-1.84,3.712,3.712,0,0,0,0,7.412,3.291,3.291,0,0,0,3.009-1.84l3.009,1.642c-.97,2.138-3.184,3.382-5.993,3.382-4.353,0-7.461-2.86-7.461-6.889" transform="translate(-147.483 -26.791)" fill="#fff"/>
        <path id="Path_174" data-name="Path 174" d="M316.436,58.934c0-4.029,3.108-6.889,7.362-6.889s7.336,2.86,7.336,6.889-3.084,6.889-7.336,6.889-7.362-2.86-7.362-6.889m10.769,0a3.431,3.431,0,1,0-6.84,0,3.431,3.431,0,1,0,6.84,0" transform="translate(-162.893 -26.791)" fill="#fff"/>
        <path id="Path_175" data-name="Path 175" d="M374.666,57.964v7.66h-3.879V58.561c0-2.164-.971-3.158-2.537-3.158-1.741,0-2.959,1.119-2.959,3.506v6.715H361.41V58.561c0-2.164-.92-3.158-2.537-3.158-1.716,0-2.935,1.119-2.935,3.506v6.715h-3.879V52.244h3.706v1.542a5.418,5.418,0,0,1,4.2-1.741,4.992,4.992,0,0,1,4.4,2.189,6.017,6.017,0,0,1,4.825-2.189c3.183,0,5.471,1.84,5.471,5.919" transform="translate(-181.231 -26.791)" fill="#fff"/>
        <path id="Path_176" data-name="Path 176" d="M19.092,43.392a5.03,5.03,0,0,1-7.018,0,5.027,5.027,0,0,1-7.015,0,4.985,4.985,0,0,1-3.507,1.426,4.977,4.977,0,0,1-1.194-.142,18.849,18.849,0,0,0,2.572,7.4A3.7,3.7,0,0,0,4.5,50.842l.556-.755.556.755a3.647,3.647,0,0,0,5.9,0l.556-.755.558.755a3.648,3.648,0,0,0,5.9,0l.556-.755V43.392" transform="translate(-0.184 -22.337)" fill="#fff"/>
        <path id="Path_177" data-name="Path 177" d="M18.907,2.152A18.929,18.929,0,0,0,0,21.058c0,.295.031.581.046.872a3.567,3.567,0,0,0,1.321.276,3.637,3.637,0,0,0,2.951-1.5l.556-.756.556.756a3.678,3.678,0,0,0,1.482,1.177c-.018-.272-.042-.544-.042-.821A12.051,12.051,0,0,1,18.907,9.022Z" transform="translate(0 -1.108)" fill="#fff"/>
        <path id="Path_178" data-name="Path 178" d="M27.663,19.159a10.629,10.629,0,0,0-10.59,11.794c.022,0,.043.008.066.008a3.635,3.635,0,0,0,2.95-1.5l.556-.756.558.756a3.649,3.649,0,0,0,5.9,0l.556-.756h0Z" transform="translate(-8.756 -9.862)" fill="#fff"/>
        <path id="Path_179" data-name="Path 179" d="M22.636,61.755a5.03,5.03,0,0,1-7.018,0,5.027,5.027,0,0,1-7.017,0,5.023,5.023,0,0,1-1.358.942,18.839,18.839,0,0,0,15.393,7.951V61.755" transform="translate(-3.729 -31.789)" fill="#fff"/>
      </g>
    </g>
  </g>
</svg>
