<svg xmlns="http://www.w3.org/2000/svg" xmlns:xlink="http://www.w3.org/1999/xlink" width="262.289" height="64.688" viewBox="0 0 262.289 64.688">
  <defs>
    <clipPath id="clip-path">
      <rect id="Rectangle_43" data-name="Rectangle 43" width="262.289" height="64.688" fill="none"/>
    </clipPath>
  </defs>
  <g id="Group_21" data-name="Group 21" transform="translate(4 2)">
    <path id="Path_107" data-name="Path 107" d="M63.237,24.984l-.032-13.7L56.486,22.57H54.1L47.419,11.579v13.4H42.461V2.152h4.37L55.376,16.34,63.792,2.152H68.13L68.2,24.984Z" transform="translate(-13.703 0.086)" fill="#5fafec"/>
    <g id="Group_24" data-name="Group 24" transform="translate(-4 -2)">
      <g id="Group_23" data-name="Group 23" clip-path="url(#clip-path)">
        <path id="Path_108" data-name="Path 108" d="M105.721,17.84V27.853h-4.762V25.668c-.946,1.6-2.773,2.447-5.349,2.447-4.11,0-6.555-2.283-6.555-5.316,0-3.1,2.185-5.251,7.534-5.251h4.044c0-2.185-1.305-3.458-4.044-3.458a8.444,8.444,0,0,0-5.056,1.631l-1.826-3.555a13.489,13.489,0,0,1,7.568-2.12c5.349,0,8.447,2.479,8.447,7.8m-5.088,4.468V20.515h-3.49c-2.382,0-3.132.88-3.132,2.054,0,1.273,1.076,2.12,2.87,2.12a3.75,3.75,0,0,0,3.751-2.381" transform="translate(-26.647 -0.784)" fill="#5fafec"/>
        <rect id="Rectangle_41" data-name="Rectangle 41" width="5.088" height="24.201" transform="translate(83.674 2.869)" fill="#5fafec"/>
        <path id="Path_109" data-name="Path 109" d="M150.025,24.936a7.267,7.267,0,0,1-4.143,1.109c-4.142,0-6.556-2.12-6.556-6.294V12.542H136.62V8.629h2.706V4.356h5.088V8.629h4.371v3.914h-4.371v7.143A2.047,2.047,0,0,0,146.6,22a3.428,3.428,0,0,0,2.055-.653Z" transform="translate(-43.944 1.285)" fill="#5fafec"/>
        <path id="Path_110" data-name="Path 110" d="M177.07,17.84V27.853h-4.762V25.668c-.946,1.6-2.773,2.447-5.349,2.447-4.11,0-6.555-2.283-6.555-5.316,0-3.1,2.185-5.251,7.534-5.251h4.044c0-2.185-1.305-3.458-4.044-3.458a8.443,8.443,0,0,0-5.056,1.631l-1.826-3.555a13.489,13.489,0,0,1,7.568-2.12c5.349,0,8.447,2.479,8.447,7.8m-5.088,4.468V20.515h-3.49c-2.382,0-3.132.88-3.132,2.054,0,1.273,1.076,2.12,2.87,2.12a3.75,3.75,0,0,0,3.751-2.381" transform="translate(-52.593 -0.784)" fill="#5fafec"/>
        <path id="Path_111" data-name="Path 111" d="M192.542,22.1l.946-1.859a11.21,11.21,0,0,0,7.534,2.773c4.273,0,6.133-1.795,6.133-4.045,0-6.263-14.058-2.414-14.058-10.861,0-3.36,2.61-6.262,8.415-6.262a12.887,12.887,0,0,1,7.078,2.022l-.815,1.924A11.757,11.757,0,0,0,201.511,3.9c-4.175,0-6.035,1.859-6.035,4.142,0,6.262,14.058,2.479,14.058,10.8,0,3.359-2.674,6.229-8.513,6.229-3.424,0-6.784-1.207-8.479-2.968" transform="translate(-64.279 2.198)" fill="#97d2ff"/>
        <path id="Path_112" data-name="Path 112" d="M238.858,17.52V28.153H236.64V25.478c-1.044,1.761-3.066,2.838-5.9,2.838-3.882,0-6.263-2.022-6.263-4.99,0-2.643,1.7-4.86,6.621-4.86h5.447V17.422c0-2.936-1.663-4.534-4.86-4.534a8.741,8.741,0,0,0-5.707,2.022l-1.044-1.729a10.9,10.9,0,0,1,6.98-2.315c4.435,0,6.947,2.218,6.947,6.654M236.543,23v-2.8h-5.382c-3.328,0-4.4,1.3-4.4,3.065,0,1.99,1.6,3.229,4.338,3.229A5.489,5.489,0,0,0,236.543,23" transform="translate(-75.891 -1.083)" fill="#97d2ff"/>
        <rect id="Rectangle_42" data-name="Rectangle 42" width="2.316" height="24.201" transform="translate(169.263 2.869)" fill="#97d2ff"/>
        <path id="Path_113" data-name="Path 113" d="M284.711,20.291H270.36c.261,3.588,3,5.969,6.751,5.969a6.763,6.763,0,0,0,5.251-2.25l1.305,1.5a8.447,8.447,0,0,1-6.621,2.805c-5.349,0-9-3.653-9-8.741s3.555-8.709,8.382-8.709,8.318,3.555,8.318,8.709c0,.195-.033.456-.033.717M270.36,18.562h12.165a6.095,6.095,0,0,0-12.165,0" transform="translate(-91.735 -1.082)" fill="#97d2ff"/>
        <path id="Path_114" data-name="Path 114" d="M62.259,52.437c0,5.088-3.816,8.252-9.915,8.252h-4.6v6.294H42.461V44.152h9.883c6.1,0,9.915,3.164,9.915,8.285m-5.349,0c0-2.511-1.631-3.979-4.86-3.979H47.745v7.926H52.05c3.229,0,4.86-1.467,4.86-3.947" transform="translate(-9.703 -13.187)" fill="#5fafec"/>
        <path id="Path_115" data-name="Path 115" d="M89.8,52.045v4.7c-.424-.032-.75-.065-1.142-.065-2.805,0-4.664,1.533-4.664,4.892v8.284H78.9V52.306h4.86v2.316c1.239-1.7,3.326-2.577,6.033-2.577" transform="translate(-22.956 -16.057)" fill="#5fafec"/>
        <path id="Path_116" data-name="Path 116" d="M98.486,61.079c0-5.284,4.077-9.034,9.655-9.034s9.622,3.751,9.622,9.034-4.045,9.035-9.622,9.035-9.655-3.751-9.655-9.035m14.123,0c0-3.033-1.924-4.86-4.468-4.86s-4.5,1.827-4.5,4.86,1.957,4.86,4.5,4.86,4.468-1.826,4.468-4.86" transform="translate(-30.077 -16.057)" fill="#5fafec"/>
        <path id="Path_117" data-name="Path 117" d="M153.224,61.079c0,5.512-3.816,9.035-8.741,9.035a6.813,6.813,0,0,1-5.284-2.12v8.186H134.11V52.306h4.86v2.022a6.819,6.819,0,0,1,5.513-2.283c4.925,0,8.741,3.523,8.741,9.034m-5.153,0c0-3.033-1.925-4.86-4.469-4.86s-4.469,1.827-4.469,4.86,1.924,4.86,4.469,4.86,4.469-1.826,4.469-4.86" transform="translate(-43.031 -16.057)" fill="#5fafec"/>
        <path id="Path_118" data-name="Path 118" d="M185.824,62.515H172.549c.489,2.185,2.349,3.522,5.023,3.522a5.947,5.947,0,0,0,4.4-1.7l2.707,2.935c-1.631,1.859-4.077,2.838-7.24,2.838-6.066,0-10.013-3.816-10.013-9.035,0-5.251,4.012-9.034,9.361-9.034,5.153,0,9.132,3.458,9.132,9.1,0,.391-.065.946-.1,1.369m-13.34-2.968h8.643a4.383,4.383,0,0,0-8.643,0" transform="translate(-55.147 -16.057)" fill="#5fafec"/>
        <path id="Path_119" data-name="Path 119" d="M212.716,52.045v4.7c-.424-.032-.751-.065-1.142-.065-2.8,0-4.663,1.533-4.663,4.892v8.284h-5.088V52.306h4.86v2.316c1.239-1.7,3.327-2.577,6.034-2.577" transform="translate(-67.654 -16.057)" fill="#5fafec"/>
        <path id="Path_120" data-name="Path 120" d="M234.808,66.936a7.268,7.268,0,0,1-4.143,1.109c-4.142,0-6.556-2.12-6.556-6.294V54.542H221.4V50.628h2.706V46.356H229.2v4.273h4.371v3.914H229.2v7.143A2.047,2.047,0,0,0,231.383,64a3.427,3.427,0,0,0,2.055-.653Z" transform="translate(-74.774 -13.988)" fill="#5fafec"/>
        <path id="Path_121" data-name="Path 121" d="M262.357,52.455l-7.926,18.624c-1.7,4.24-4.109,5.512-7.274,5.512a7.79,7.79,0,0,1-4.892-1.6l1.859-3.62a4.508,4.508,0,0,0,2.869,1.109c1.4,0,2.185-.62,2.87-2.185l.066-.164-7.6-17.678h5.251l4.925,11.9,4.958-11.9Z" transform="translate(-82.361 -16.206)" fill="#5fafec"/>
        <path id="Path_122" data-name="Path 122" d="M273.532,73.628a3.164,3.164,0,0,1,6.327,0,3.164,3.164,0,1,1-6.327,0" transform="translate(-93.731 -22.767)" fill="#97d2ff"/>
        <path id="Path_123" data-name="Path 123" d="M286.5,61.079c0-5.284,4.077-9.034,9.785-9.034,3.685,0,6.588,1.6,7.86,4.469l-3.947,2.12a4.376,4.376,0,0,0-3.946-2.414,4.49,4.49,0,0,0-4.6,4.86,4.49,4.49,0,0,0,4.6,4.86,4.317,4.317,0,0,0,3.946-2.414l3.947,2.153c-1.272,2.8-4.175,4.435-7.86,4.435-5.708,0-9.785-3.751-9.785-9.035" transform="translate(-98.446 -16.057)" fill="#97d2ff"/>
        <path id="Path_124" data-name="Path 124" d="M316.436,61.079c0-5.284,4.077-9.034,9.655-9.034s9.621,3.751,9.621,9.034-4.045,9.035-9.621,9.035-9.655-3.751-9.655-9.035m14.123,0c0-3.033-1.924-4.86-4.468-4.86s-4.5,1.827-4.5,4.86,1.957,4.86,4.5,4.86,4.468-1.826,4.468-4.86" transform="translate(-109.332 -16.057)" fill="#97d2ff"/>
        <path id="Path_125" data-name="Path 125" d="M381.707,59.808V69.853h-5.088V60.591c0-2.838-1.273-4.142-3.327-4.142-2.283,0-3.881,1.467-3.881,4.6v8.807h-5.088V60.591c0-2.838-1.207-4.142-3.327-4.142-2.251,0-3.849,1.467-3.849,4.6v8.807h-5.088V52.306h4.86v2.022a7.106,7.106,0,0,1,5.512-2.283,6.547,6.547,0,0,1,5.772,2.871,7.891,7.891,0,0,1,6.328-2.871c4.174,0,7.176,2.414,7.176,7.763" transform="translate(-122.287 -16.057)" fill="#97d2ff"/>
        <path id="Path_126" data-name="Path 126" d="M24.926,43.392a6.6,6.6,0,0,1-9.2,0,6.593,6.593,0,0,1-9.2,0,6.538,6.538,0,0,1-4.6,1.87,6.527,6.527,0,0,1-1.565-.186,24.719,24.719,0,0,0,3.373,9.7,4.846,4.846,0,0,0,2.062-1.616l.729-.99.729.99a4.783,4.783,0,0,0,7.742,0l.729-.99.732.99a4.785,4.785,0,0,0,7.743,0l.729-.99v-8.78" transform="translate(2.738 -12.91)" fill="#97d2ff"/>
        <path id="Path_127" data-name="Path 127" d="M24.8,2.152A24.824,24.824,0,0,0,0,26.947c0,.386.04.762.06,1.144a4.678,4.678,0,0,0,1.733.362,4.77,4.77,0,0,0,3.87-1.973l.729-.991.729.991a4.824,4.824,0,0,0,1.944,1.544c-.024-.356-.055-.713-.055-1.076A15.8,15.8,0,0,1,24.8,11.162Z" transform="translate(2.869 2.086)" fill="#5fafec"/>
        <path id="Path_128" data-name="Path 128" d="M30.981,19.159A13.94,13.94,0,0,0,17.093,34.627c.029,0,.057.01.087.01a4.767,4.767,0,0,0,3.869-1.973l.729-.992.732.992a4.786,4.786,0,0,0,7.743,0l.729-.992h0Z" transform="translate(-3.317 -4.098)" fill="#fbb03b"/>
        <path id="Path_129" data-name="Path 129" d="M27.43,61.756a6.6,6.6,0,0,1-9.2,0,6.593,6.593,0,0,1-9.2,0,6.588,6.588,0,0,1-1.781,1.235A24.707,24.707,0,0,0,27.43,73.417V61.756" transform="translate(0.235 -19.588)" fill="#5fafec"/>
      </g>
    </g>
  </g>
</svg>
